{"glyphs":{":":{"x_min":0,"x_max":367,"ha":367,"o":"m 85 459 q 85 496 111 522 q 136 547 173 547 q 209 547 235 522 q 261 496 261 459 q 261 423 235 397 q 209 371 173 371 q 136 371 111 397 q 85 423 85 459 z m 85 64 q 85 101 111 126 q 136 152 173 152 q 209 152 235 126 q 261 101 261 64 q 261 27 235 1 q 209 -24 173 -24 q 136 -24 111 1 q 85 27 85 64 z"},"$":{"x_min":0,"x_max":586,"ha":586,"o":"m 231 -11 q 146 -5 76 40 l 123 153 q 198 101 271 101 q 382 101 382 178 q 382 216 354 250 q 325 284 245 324 q 166 364 137 391 q 108 417 93 454 q 77 490 77 535 q 77 602 119 652 q 161 703 231 720 l 231 809 l 343 809 l 342 725 q 432 716 476 681 l 438 572 q 371 620 296 620 q 252 620 228 596 q 204 572 204 536 q 204 475 340 408 q 412 373 444 344 q 476 314 492 275 q 509 235 509 187 q 509 119 465 68 q 421 17 343 -2 l 343 -115 l 231 -115 z"},"?":{"x_min":0,"x_max":438,"ha":438,"o":"m 243 217 l 149 217 q 148 220 140 242 q 132 263 132 279 q 132 310 141 338 q 149 367 166 391 q 183 416 232 470 q 281 524 281 560 q 281 628 191 628 q 148 628 101 584 l 50 679 q 113 728 216 728 q 295 728 348 684 q 401 640 401 567 q 401 518 382 483 q 362 449 314 402 q 265 356 250 325 q 236 294 236 258 q 236 250 243 217 z m 201 150 q 234 150 258 127 q 281 104 281 70 q 281 37 258 14 q 234 -10 201 -10 q 168 -10 145 14 q 121 37 121 70 q 121 104 145 127 q 168 150 201 150 z"},"<":{"x_min":0,"x_max":586,"ha":586,"o":"m 94 272 l 94 351 l 484 538 l 484 426 l 226 311 l 484 194 l 484 83 z"},"'":{"x_min":0,"x_max":229,"ha":229,"o":"m 165 506 l 72 506 l 59 716 l 180 716 z"},"=":{"x_min":0,"x_max":586,"ha":586,"o":"m 87 364 l 87 462 l 526 462 l 526 364 z m 87 159 l 87 257 l 526 257 l 526 159 z"},"a":{"x_min":0,"x_max":533,"ha":533,"o":"m 357 52 q 340 25 299 8 q 258 -10 213 -10 q 128 -10 80 32 q 32 75 32 152 q 32 243 100 294 q 168 346 293 346 q 315 346 344 338 q 344 431 228 431 q 159 431 112 408 l 86 502 q 149 533 236 533 q 355 533 411 478 q 467 424 467 272 l 467 160 q 467 56 509 29 q 494 2 475 -4 q 457 -10 433 -10 q 406 -10 385 10 q 364 29 357 52 z m 345 246 q 314 252 298 252 q 154 252 154 158 q 154 87 235 87 q 345 87 345 197 z"},"L":{"x_min":0,"x_max":553,"ha":553,"o":"m 73 0 l 73 715 l 200 715 l 200 113 l 523 113 l 523 0 z"},"3":{"x_min":0,"x_max":586,"ha":586,"o":"m 70 60 l 133 158 q 190 98 256 98 q 377 98 377 212 q 377 264 342 296 q 307 329 248 329 l 225 329 l 225 433 l 244 433 q 354 433 354 524 q 354 620 251 620 q 199 620 149 570 l 89 658 q 112 686 161 707 q 210 728 259 728 q 366 728 426 679 q 485 630 485 542 q 485 438 396 383 q 509 329 509 205 q 509 103 442 46 q 374 -10 255 -10 q 146 -10 70 60 z"},";":{"x_min":0,"x_max":367,"ha":367,"o":"m 85 459 q 85 496 111 522 q 136 547 173 547 q 209 547 235 522 q 261 496 261 459 q 261 423 235 397 q 209 371 173 371 q 136 371 111 397 q 85 423 85 459 z m 106 -183 l 64 -129 q 154 -62 154 -24 q 154 -10 144 4 q 97 27 97 67 q 97 97 122 116 q 146 135 182 135 q 216 135 241 110 q 266 84 266 50 q 266 -12 237 -63 q 208 -114 106 -183 z"},"J":{"x_min":0,"x_max":533,"ha":533,"o":"m 8 166 l 122 166 q 138 103 226 103 q 289 103 314 144 q 340 184 340 267 l 340 715 l 467 715 l 467 271 q 467 128 406 59 q 346 -10 212 -10 q 123 -10 68 37 q 14 83 8 166 z"},"V":{"x_min":0,"x_max":622,"ha":622,"o":"m 340 -10 l 270 -10 l 2 715 l 142 715 l 308 232 l 482 715 l 619 715 z"},"\"":{"x_min":0,"x_max":367,"ha":367,"o":"m 326 506 l 233 506 l 220 716 l 341 716 z m 140 506 l 48 506 l 34 716 l 155 716 z"},"7":{"x_min":0,"x_max":586,"ha":586,"o":"m 262 0 l 123 0 q 203 245 396 601 l 69 601 l 69 718 l 562 718 l 562 664 l 498 542 q 466 481 431 408 q 396 335 362 260 q 329 184 304 118 q 278 53 262 0 z"},"S":{"x_min":0,"x_max":511,"ha":511,"o":"m 39 40 l 86 153 q 161 101 234 101 q 346 101 346 179 q 346 215 319 249 q 293 282 211 323 q 128 364 100 391 q 71 417 56 454 q 41 491 41 535 q 41 618 101 673 q 162 728 257 728 q 381 728 439 681 l 401 572 q 334 620 260 620 q 216 620 192 596 q 167 573 167 536 q 167 475 304 408 q 375 373 407 344 q 439 314 456 275 q 472 235 472 187 q 472 100 404 44 q 335 -12 220 -12 q 120 -12 39 40 z"},"}":{"x_min":0,"x_max":434,"ha":434,"o":"m 396 244 q 293 238 293 157 q 293 122 312 54 q 330 -15 330 -50 q 330 -121 270 -163 q 210 -205 122 -205 l 40 -205 l 40 -110 q 122 -110 149 -102 q 176 -94 191 -73 q 205 -51 205 -17 q 205 13 190 72 q 174 130 174 160 q 174 231 268 280 q 174 339 174 415 q 174 442 190 494 q 205 546 205 573 q 205 646 140 646 l 40 646 l 40 737 l 126 737 q 209 737 269 697 q 330 656 330 588 q 330 557 312 497 q 293 437 293 406 q 293 318 396 311 z"},"Z":{"x_min":0,"x_max":560,"ha":560,"o":"m 39 0 l 39 41 l 337 603 l 44 603 l 44 715 l 510 715 l 510 674 l 211 113 l 521 113 l 521 0 z"},"x":{"x_min":0,"x_max":552,"ha":552,"o":"m 402 0 l 268 170 l 147 0 l 2 0 l 203 268 l 19 523 l 159 523 l 269 363 l 392 523 l 531 523 l 331 268 l 550 0 z"},")":{"x_min":0,"x_max":367,"ha":367,"o":"m 80 -222 l 80 -140 q 176 -32 176 271 q 176 527 80 662 l 80 729 q 180 679 248 544 q 316 408 316 272 q 316 114 256 -15 q 195 -144 80 -222 z"},"&":{"x_min":0,"x_max":706,"ha":706,"o":"m 452 21 q 378 -10 283 -10 q 173 -10 114 53 q 55 116 55 227 q 55 330 127 403 q 64 467 64 540 q 64 618 125 673 q 186 728 287 728 q 392 728 460 675 l 409 586 q 348 629 302 629 q 247 629 217 603 q 187 576 187 531 q 187 479 233 441 l 396 441 l 396 523 l 518 568 l 518 440 l 639 440 l 639 337 l 518 337 l 518 196 q 518 140 533 119 q 548 98 583 98 q 617 98 651 113 l 651 6 q 600 -10 542 -10 q 495 -10 452 21 z m 396 161 l 396 337 l 221 337 q 182 290 182 230 q 182 98 316 98 q 369 98 399 114 q 396 132 396 161 z"},"_":{"x_min":0,"x_max":586,"ha":586,"o":"m -4 -163 l -4 -61 l 589 -61 l 589 -163 z"},"v":{"x_min":0,"x_max":527,"ha":527,"o":"m 283 -10 l 239 -10 l 2 523 l 136 523 l 261 204 l 396 523 l 525 523 z"},"O":{"x_min":0,"x_max":703,"ha":703,"o":"m 39 364 q 39 517 123 622 q 207 728 347 728 q 501 728 583 632 q 664 537 664 364 q 664 191 579 89 q 494 -12 337 -12 q 193 -12 116 88 q 39 189 39 364 z m 171 364 q 171 238 213 169 q 256 101 337 101 q 432 101 482 168 q 532 235 532 364 q 532 615 347 615 q 262 615 216 547 q 171 479 171 364 z"},"(":{"x_min":0,"x_max":367,"ha":367,"o":"m 316 729 l 316 662 q 220 527 220 271 q 220 -32 316 -140 l 316 -222 q 201 -144 140 -15 q 80 114 80 272 q 80 408 148 544 q 216 679 316 729 z"},"C":{"x_min":0,"x_max":612,"ha":612,"o":"m 563 677 l 511 572 q 469 615 375 615 q 285 615 228 540 q 171 465 171 350 q 171 235 224 168 q 277 101 365 101 q 466 101 523 173 l 583 70 q 505 -12 355 -12 q 205 -12 122 86 q 39 185 39 355 q 39 514 131 621 q 223 728 367 728 q 490 728 563 677 z"},"W":{"x_min":0,"x_max":884,"ha":884,"o":"m 650 -10 l 598 -10 l 441 441 l 290 -10 l 237 -10 l 2 715 l 135 715 l 269 284 l 414 715 l 470 715 l 615 284 l 749 715 l 881 715 z"},"A":{"x_min":0,"x_max":633,"ha":633,"o":"m 491 0 l 438 145 l 193 145 l 144 0 l 2 0 l 288 725 l 343 725 l 631 0 z m 315 506 l 229 242 l 401 242 z"},"f":{"x_min":0,"x_max":370,"ha":370,"o":"m 357 625 q 317 639 296 639 q 261 639 237 609 q 213 579 213 536 q 213 529 213 523 l 322 523 l 322 422 l 215 422 l 215 0 l 93 0 l 93 422 l 17 422 l 17 523 l 94 523 q 98 619 151 678 q 204 737 288 737 q 331 737 394 718 z"},"Q":{"x_min":0,"x_max":709,"ha":709,"o":"m 751 -148 q 719 -152 686 -152 q 595 -152 519 -115 q 442 -79 400 -12 q 382 -16 342 -16 q 201 -16 120 90 q 39 195 39 361 q 39 519 122 623 q 204 728 342 728 q 497 728 580 631 q 664 534 664 361 q 664 105 496 19 q 549 -40 673 -40 q 718 -40 751 -30 z m 171 361 q 171 249 216 173 q 261 98 342 98 q 436 98 484 167 q 532 236 532 361 q 532 615 342 615 q 258 615 214 547 q 171 479 171 361 z"},"w":{"x_min":0,"x_max":784,"ha":784,"o":"m 580 -10 l 535 -10 l 392 312 l 249 -10 l 204 -10 l 6 523 l 135 523 l 240 211 l 368 523 l 412 523 l 544 209 l 657 523 l 777 523 z"},"-":{"x_min":0,"x_max":367,"ha":367,"o":"m 53 232 l 53 347 l 312 347 l 312 232 z"},"E":{"x_min":0,"x_max":569,"ha":569,"o":"m 200 603 l 200 435 l 437 435 l 437 327 l 200 327 l 200 113 l 524 113 l 524 0 l 73 0 l 73 715 l 530 715 l 530 603 z"},"s":{"x_min":0,"x_max":431,"ha":431,"o":"m 34 34 l 77 131 q 132 87 201 87 q 272 87 272 138 q 272 168 250 187 q 229 206 167 232 q 32 288 32 389 q 32 457 83 495 q 135 533 216 533 q 297 533 369 496 l 334 401 q 294 436 223 436 q 159 436 159 385 q 159 365 180 349 q 201 333 270 305 q 338 278 369 240 q 399 201 399 146 q 399 74 345 32 q 291 -10 198 -10 q 146 -10 115 -1 q 83 7 34 34 z"},">":{"x_min":0,"x_max":586,"ha":586,"o":"m 129 83 l 129 194 l 387 311 l 129 426 l 129 538 l 520 351 l 520 272 z"},"l":{"x_min":0,"x_max":295,"ha":295,"o":"m 87 718 l 209 747 l 209 159 q 209 62 267 44 q 238 -10 170 -10 q 87 -10 87 105 z"},"8":{"x_min":0,"x_max":586,"ha":586,"o":"m 172 392 q 133 418 108 461 q 83 505 83 548 q 83 631 141 679 q 200 728 291 728 q 389 728 444 679 q 500 631 500 548 q 500 504 469 456 q 438 407 401 388 q 448 366 487 310 q 526 254 526 205 q 526 103 462 47 q 398 -10 289 -10 q 178 -10 117 45 q 57 101 57 205 q 57 258 89 310 q 121 362 172 392 z m 303 440 q 330 453 351 488 q 372 522 372 550 q 372 582 350 601 q 328 620 291 620 q 210 620 210 549 q 210 518 240 486 q 270 453 303 440 z m 277 340 q 184 288 184 205 q 184 159 213 128 q 242 98 289 98 q 337 98 368 125 q 399 151 399 195 q 399 269 277 340 z"},"\\":{"x_min":0,"x_max":355,"ha":355,"o":"m 258 0 l -4 718 l 97 718 l 359 0 z"},"e":{"x_min":0,"x_max":575,"ha":575,"o":"m 533 224 l 159 224 q 163 162 202 127 q 242 92 309 92 q 392 92 436 136 l 483 42 q 418 -10 291 -10 q 171 -10 101 60 q 32 130 32 256 q 32 379 108 456 q 185 533 292 533 q 405 533 474 465 q 543 397 543 292 q 543 270 533 224 z m 164 316 l 420 316 q 408 431 293 431 q 189 431 164 316 z"},"b":{"x_min":0,"x_max":582,"ha":582,"o":"m 152 29 l 125 -10 l 56 -10 l 56 718 l 178 747 l 178 503 q 227 533 285 533 q 399 533 470 460 q 540 388 540 274 q 540 143 469 67 q 398 -10 277 -10 q 205 -10 152 29 z m 178 398 l 178 125 q 205 94 251 94 q 339 94 376 136 q 413 178 413 270 q 413 429 261 429 q 207 429 178 398 z"},"%":{"x_min":0,"x_max":684,"ha":684,"o":"m 15 560 q 15 634 59 681 q 102 728 170 728 q 237 728 277 681 q 316 634 316 550 q 316 472 274 425 q 232 377 166 377 q 15 377 15 560 z m 106 555 q 106 506 122 479 q 137 453 161 453 q 226 453 226 554 q 226 652 168 652 q 106 652 106 555 z m 164 -10 l 68 -10 l 516 728 l 611 728 z m 357 172 q 357 247 400 294 q 444 341 512 341 q 579 341 618 294 q 658 247 658 164 q 658 85 616 38 q 574 -10 507 -10 q 357 -10 357 172 z m 448 168 q 448 119 463 93 q 479 66 503 66 q 567 66 567 167 q 567 265 510 265 q 448 265 448 168 z"},"m":{"x_min":0,"x_max":859,"ha":859,"o":"m 671 0 l 671 328 q 671 431 579 431 q 552 431 526 415 q 501 398 491 377 l 491 0 l 369 0 l 369 347 q 369 385 345 408 q 321 431 277 431 q 254 431 227 414 q 200 396 188 376 l 188 0 l 66 0 l 66 523 l 150 523 l 175 477 q 226 533 306 533 q 410 533 463 476 q 486 502 527 517 q 568 533 609 533 q 696 533 745 483 q 793 433 793 345 l 793 0 z"},"#":{"x_min":0,"x_max":586,"ha":586,"o":"m 573 444 l 468 444 l 427 288 l 502 288 l 502 200 l 404 200 l 345 -10 l 250 -10 l 308 200 l 195 200 l 138 -10 l 42 -10 l 100 200 l 32 200 l 32 288 l 124 288 l 165 444 l 88 444 l 88 533 l 188 533 l 241 726 l 335 726 l 284 533 l 396 533 l 448 726 l 542 726 l 492 533 l 573 533 z m 375 444 l 260 444 l 219 288 l 333 288 z"},",":{"x_min":0,"x_max":367,"ha":367,"o":"m 106 -183 l 64 -129 q 154 -62 154 -24 q 154 -10 144 4 q 97 27 97 67 q 97 97 122 116 q 146 135 182 135 q 216 135 241 110 q 266 84 266 50 q 266 -12 237 -63 q 208 -114 106 -183 z"},"n":{"x_min":0,"x_max":590,"ha":590,"o":"m 402 0 l 402 302 q 402 369 377 400 q 351 431 293 431 q 266 431 236 416 q 205 400 188 378 l 188 0 l 66 0 l 66 523 l 154 523 l 176 474 q 226 533 323 533 q 417 533 470 477 q 524 421 524 321 l 524 0 z"},"h":{"x_min":0,"x_max":593,"ha":593,"o":"m 404 0 l 404 322 q 404 371 374 400 q 344 429 295 429 q 265 429 234 413 q 203 396 190 375 l 190 0 l 66 0 l 66 718 l 190 747 l 190 490 q 237 533 320 533 q 418 533 473 478 q 527 424 527 322 l 527 0 z"},"z":{"x_min":0,"x_max":528,"ha":528,"o":"m 32 0 l 32 42 l 315 417 l 37 417 l 37 523 l 494 523 l 494 480 l 220 106 l 497 106 l 497 0 z"},"B":{"x_min":0,"x_max":595,"ha":595,"o":"m 292 0 l 73 0 l 73 715 q 218 722 276 722 q 387 722 450 674 q 513 626 513 538 q 513 453 423 404 q 556 357 556 212 q 556 115 482 57 q 409 0 292 0 z m 200 613 l 200 442 q 229 440 262 440 q 386 440 386 533 q 386 616 273 616 q 243 616 200 613 z m 200 343 l 200 106 q 239 103 263 103 q 348 103 386 132 q 424 161 424 228 q 424 289 389 316 q 353 344 264 344 q 246 344 200 343 z"},"K":{"x_min":0,"x_max":617,"ha":617,"o":"m 479 0 l 280 305 l 200 196 l 200 0 l 73 0 l 73 715 l 200 715 l 200 373 l 443 715 l 588 715 l 364 403 l 631 0 z"},"R":{"x_min":0,"x_max":611,"ha":611,"o":"m 477 0 l 286 295 q 257 296 205 299 l 205 0 l 73 0 l 73 715 q 84 715 156 719 q 228 723 271 723 q 544 723 544 512 q 544 448 506 396 q 469 344 412 322 l 623 0 z m 205 605 l 205 406 q 240 403 259 403 q 338 403 375 426 q 412 448 412 513 q 412 566 373 587 q 333 608 248 608 q 228 608 205 605 z"},"T":{"x_min":0,"x_max":612,"ha":612,"o":"m 364 603 l 364 0 l 237 0 l 237 603 l 10 603 l 10 715 l 602 715 l 602 603 z"},"P":{"x_min":0,"x_max":587,"ha":587,"o":"m 200 263 l 200 0 l 73 0 l 73 715 q 200 720 222 720 q 391 720 469 668 q 548 616 548 506 q 548 260 258 260 q 236 260 200 263 z m 200 605 l 200 376 q 232 373 251 373 q 338 373 378 402 q 418 431 418 496 q 418 607 239 607 q 219 607 200 605 z"},"|":{"x_min":0,"x_max":586,"ha":586,"o":"m 247 -205 l 247 737 l 347 737 l 347 -205 z"},"t":{"x_min":0,"x_max":396,"ha":396,"o":"m 84 425 l 24 425 l 24 523 l 84 523 l 84 629 l 207 674 l 207 523 l 350 523 l 350 425 l 207 425 l 207 196 q 207 140 224 116 q 242 93 286 93 q 330 93 368 117 l 368 5 q 325 -10 247 -10 q 168 -10 126 34 q 84 79 84 160 z"},"M":{"x_min":0,"x_max":745,"ha":745,"o":"m 740 0 l 617 0 l 543 385 l 399 -10 l 354 -10 l 209 385 l 132 0 l 10 0 l 154 715 l 221 715 l 376 233 l 527 715 l 594 715 z"},"g":{"x_min":0,"x_max":502,"ha":502,"o":"m 27 -134 l 104 -39 q 168 -98 247 -98 q 299 -98 333 -82 q 368 -66 368 -39 q 368 7 292 7 q 271 7 231 2 q 190 -2 170 -2 q 44 -2 44 88 q 44 114 65 139 q 86 164 114 175 q 24 233 24 340 q 24 424 86 479 q 147 534 237 534 q 308 534 355 507 l 403 563 l 487 486 l 429 444 q 459 398 459 335 q 459 246 405 193 q 351 139 268 139 q 254 139 232 142 l 212 145 q 209 145 186 134 q 164 124 164 112 q 164 93 197 93 q 212 93 248 100 q 284 107 309 107 q 487 107 487 -36 q 487 -115 416 -160 q 345 -205 244 -205 q 124 -205 27 -134 z m 149 339 q 149 293 175 265 q 200 237 244 237 q 287 237 311 264 q 334 292 334 339 q 334 379 309 406 q 284 434 244 434 q 202 434 175 407 q 149 381 149 339 z"},"j":{"x_min":0,"x_max":367,"ha":367,"o":"m 218 726 q 247 726 268 705 q 289 684 289 655 q 289 625 268 605 q 247 584 218 584 q 188 584 168 605 q 147 625 147 655 q 147 684 168 705 q 188 726 218 726 z m -6 -205 l -6 -96 q 92 -96 126 -73 q 161 -50 161 10 l 161 422 l 66 422 l 66 523 l 283 523 l 283 12 q 283 -100 212 -153 q 142 -205 -6 -205 z"},"i":{"x_min":0,"x_max":298,"ha":298,"o":"m 162 726 q 191 726 212 705 q 232 684 232 655 q 232 625 212 605 q 191 584 162 584 q 132 584 112 605 q 91 625 91 655 q 91 684 112 705 q 132 726 162 726 z m 99 0 l 99 423 l 32 423 l 32 523 l 222 523 l 222 0 z"},"y":{"x_min":0,"x_max":534,"ha":534,"o":"m 297 -84 q 278 -136 214 -171 q 149 -205 64 -205 l 64 -97 q 205 -97 205 -26 q 205 21 166 117 l 2 523 l 129 523 l 271 162 l 400 523 l 526 523 z"},"@":{"x_min":0,"x_max":771,"ha":771,"o":"m 450 145 q 408 113 352 113 q 295 113 258 144 q 221 175 221 228 q 221 351 414 358 q 405 404 373 404 q 327 404 279 376 l 250 442 q 304 481 366 481 q 517 481 517 317 l 517 212 q 544 194 562 194 q 638 194 638 323 q 638 434 573 498 q 508 562 393 562 q 276 562 204 484 q 133 406 133 284 q 133 165 203 92 q 274 20 393 20 q 456 20 495 34 q 533 49 572 83 q 572 83 572 70 q 572 57 572 32 l 572 -18 q 488 -65 393 -65 q 230 -65 132 31 q 34 128 34 284 q 34 443 134 545 q 233 647 393 647 q 558 647 647 562 q 736 477 736 321 q 736 236 689 177 q 642 117 562 117 q 490 117 450 145 z m 416 292 l 406 292 q 325 292 325 230 q 325 211 339 199 q 354 187 375 187 q 399 187 416 202 z"},".":{"x_min":0,"x_max":367,"ha":367,"o":"m 85 64 q 85 101 111 126 q 136 152 173 152 q 209 152 235 126 q 261 101 261 64 q 261 27 235 1 q 209 -24 173 -24 q 136 -24 111 1 q 85 27 85 64 z"},"p":{"x_min":0,"x_max":583,"ha":583,"o":"m 178 13 l 178 -205 l 56 -205 l 56 523 l 178 523 l 178 488 q 224 533 291 533 q 541 533 541 257 q 541 129 472 60 q 403 -10 283 -10 q 226 -10 178 13 z m 178 395 l 178 120 q 211 93 256 93 q 340 93 377 134 q 414 174 414 261 q 414 354 377 391 q 341 429 256 429 q 212 429 178 395 z"},"X":{"x_min":0,"x_max":601,"ha":601,"o":"m 460 0 l 291 257 l 135 0 l 2 0 l 217 371 l 20 716 l 149 715 l 294 474 l 454 715 l 587 715 l 360 369 l 598 0 z"},"*":{"x_min":0,"x_max":432,"ha":432,"o":"m 328 538 l 262 533 l 329 495 l 371 440 l 277 370 l 236 430 l 210 492 l 186 437 l 132 370 l 48 445 l 105 501 l 159 529 l 93 535 l 17 565 l 65 666 l 142 633 l 177 596 l 150 671 l 150 738 l 266 737 l 266 673 l 243 594 l 292 638 l 361 668 l 401 570 z"},"Y":{"x_min":0,"x_max":613,"ha":613,"o":"m 371 293 l 371 0 l 244 0 l 244 293 l 2 715 l 137 715 l 307 410 l 477 715 l 611 715 z"},"c":{"x_min":0,"x_max":512,"ha":512,"o":"m 476 481 l 424 390 q 381 431 309 431 q 239 431 199 385 q 159 338 159 257 q 159 92 315 92 q 383 92 435 137 l 480 41 q 427 8 387 -1 q 347 -10 293 -10 q 172 -10 102 61 q 32 131 32 257 q 32 380 108 457 q 185 533 317 533 q 409 533 476 481 z"},"!":{"x_min":0,"x_max":367,"ha":367,"o":"m 208 187 l 157 187 q 119 431 119 528 l 119 728 l 246 728 l 246 528 q 246 431 208 187 z m 187 150 q 220 150 243 127 q 266 104 266 70 q 266 37 243 14 q 220 -10 187 -10 q 153 -10 130 14 q 106 37 106 70 q 106 104 130 127 q 153 150 187 150 z"},"/":{"x_min":0,"x_max":390,"ha":390,"o":"m 118 0 l 8 0 l 278 718 l 387 718 z"},"[":{"x_min":0,"x_max":402,"ha":402,"o":"m 73 -205 l 73 737 l 329 737 l 329 628 l 200 628 l 200 -96 l 329 -96 l 329 -205 z"},"6":{"x_min":0,"x_max":586,"ha":586,"o":"m 371 729 l 438 658 q 366 620 306 558 q 247 496 224 436 q 275 458 312 458 q 413 458 474 396 q 536 333 536 226 q 536 121 473 55 q 410 -10 314 -10 q 64 -10 64 302 q 64 433 161 567 q 257 701 371 729 z m 196 229 q 196 98 307 98 q 353 98 379 131 q 406 163 406 221 q 406 281 378 316 q 350 351 306 351 q 196 351 196 229 z"},"r":{"x_min":0,"x_max":427,"ha":427,"o":"m 368 409 q 335 431 296 431 q 254 431 221 392 q 188 354 188 298 l 188 0 l 66 0 l 66 523 l 188 523 l 188 475 q 239 533 324 533 q 387 533 420 514 z"},"2":{"x_min":0,"x_max":586,"ha":586,"o":"m 76 0 l 76 37 l 302 371 q 370 471 370 539 q 370 620 273 620 q 199 620 153 542 l 68 609 q 93 660 148 694 q 202 728 268 728 q 378 728 440 678 q 502 628 502 539 q 502 458 422 336 l 276 113 l 544 113 l 544 0 z"},"{":{"x_min":0,"x_max":434,"ha":434,"o":"m 313 -205 q 225 -205 165 -163 q 105 -121 105 -50 q 105 -15 124 54 q 142 122 142 157 q 142 238 40 244 l 40 311 q 142 318 142 406 q 142 437 124 497 q 105 557 105 588 q 105 656 166 697 q 226 737 309 737 l 396 737 l 396 646 l 295 646 q 230 646 230 573 q 230 546 245 494 q 261 442 261 415 q 261 339 167 280 q 261 231 261 160 q 261 130 245 72 q 230 13 230 -17 q 230 -51 244 -73 q 259 -94 286 -102 q 313 -110 396 -110 l 396 -205 z"},"9":{"x_min":0,"x_max":586,"ha":586,"o":"m 221 -14 l 154 58 q 302 140 364 272 q 331 257 280 257 q 180 257 118 320 q 57 382 57 490 q 57 596 120 662 q 183 728 278 728 q 528 728 528 414 q 528 283 431 149 q 335 15 221 -14 z m 186 495 q 186 435 214 400 q 243 365 287 365 q 396 365 396 487 q 396 620 285 620 q 240 620 213 587 q 186 553 186 495 z"}," ":{"x_min":0,"x_max":301,"ha":301,"o":""},"I":{"x_min":0,"x_max":278,"ha":278,"o":"m 76 0 l 76 715 l 203 715 l 203 0 z"},"H":{"x_min":0,"x_max":684,"ha":684,"o":"m 485 0 l 485 322 l 200 322 l 200 0 l 73 0 l 73 715 l 200 715 l 200 435 l 485 435 l 485 715 l 610 715 l 610 0 z"},"4":{"x_min":0,"x_max":586,"ha":586,"o":"m 480 187 l 480 0 l 358 0 l 358 187 l 33 187 l 33 260 l 425 718 l 480 718 l 480 288 l 553 288 l 553 187 z m 358 502 l 175 288 l 358 288 z"},"~":{"x_min":0,"x_max":586,"ha":586,"o":"m 159 234 l 88 234 q 98 292 126 328 q 154 364 195 364 q 219 364 242 359 q 266 354 338 332 q 358 327 374 327 q 403 327 417 364 l 489 364 q 470 292 444 263 q 417 234 376 234 q 353 234 329 239 q 305 244 259 258 q 212 271 203 271 q 177 271 159 234 z"},"D":{"x_min":0,"x_max":643,"ha":643,"o":"m 232 0 l 73 0 l 73 715 q 225 720 264 720 q 420 720 512 629 q 604 537 604 386 q 604 0 232 0 z m 200 604 l 200 116 q 231 113 267 113 q 363 113 417 183 q 472 252 472 378 q 472 607 258 607 q 238 607 200 604 z"},"^":{"x_min":0,"x_max":586,"ha":586,"o":"m 396 443 l 292 618 l 186 441 l 92 441 l 267 718 l 319 718 l 493 443 z"},"0":{"x_min":0,"x_max":586,"ha":586,"o":"m 37 379 q 37 526 108 627 q 180 728 299 728 q 549 728 549 364 q 549 193 481 92 q 414 -10 292 -10 q 162 -10 99 84 q 37 178 37 379 z m 168 371 q 168 228 196 160 q 224 93 289 93 q 358 93 388 154 q 417 214 417 370 q 417 515 389 570 q 361 625 297 625 q 168 625 168 371 z"},"F":{"x_min":0,"x_max":583,"ha":583,"o":"m 200 603 l 200 435 l 452 435 l 452 327 l 200 327 l 200 0 l 73 0 l 73 715 l 544 715 l 544 603 z"},"`":{"x_min":0,"x_max":586,"ha":586,"o":"m 291 593 l 181 736 l 311 736 l 394 593 z"},"k":{"x_min":0,"x_max":548,"ha":548,"o":"m 400 0 l 247 237 l 188 175 l 188 0 l 66 0 l 66 718 l 188 747 l 188 322 l 362 523 l 509 523 l 333 325 l 545 0 z"},"u":{"x_min":0,"x_max":591,"ha":591,"o":"m 403 0 l 403 43 q 377 21 332 6 q 286 -10 248 -10 q 66 -10 66 184 l 66 523 l 188 523 l 188 193 q 188 92 278 92 q 320 92 355 114 q 391 135 403 164 l 403 523 l 525 523 l 525 0 z"},"]":{"x_min":0,"x_max":402,"ha":402,"o":"m 329 -205 l 73 -205 l 73 -96 l 202 -96 l 202 628 l 73 628 l 73 737 l 329 737 z"},"U":{"x_min":0,"x_max":678,"ha":678,"o":"m 73 715 l 200 715 l 200 230 q 200 173 235 137 q 271 101 332 101 q 401 101 439 136 q 478 171 478 233 l 478 715 l 604 715 l 604 223 q 604 113 531 50 q 457 -12 333 -12 q 208 -12 141 49 q 73 110 73 224 z"},"o":{"x_min":0,"x_max":566,"ha":566,"o":"m 32 263 q 32 382 101 458 q 170 533 283 533 q 402 533 468 460 q 534 388 534 263 q 534 138 467 64 q 400 -10 283 -10 q 164 -10 98 65 q 32 139 32 263 z m 159 263 q 159 90 283 90 q 340 90 374 135 q 407 180 407 263 q 407 433 283 433 q 226 433 192 388 q 159 343 159 263 z"},"N":{"x_min":0,"x_max":667,"ha":667,"o":"m 542 -10 l 195 443 l 195 0 l 73 0 l 73 715 l 134 715 l 472 284 l 472 715 l 594 715 l 594 -10 z"},"+":{"x_min":0,"x_max":586,"ha":586,"o":"m 348 261 l 348 88 l 250 88 l 250 261 l 80 261 l 80 359 l 250 359 l 250 527 l 348 527 l 348 359 l 519 359 l 519 261 z"},"G":{"x_min":0,"x_max":671,"ha":671,"o":"m 602 657 l 548 555 q 526 575 479 595 q 432 615 398 615 q 293 615 232 543 q 171 472 171 352 q 171 237 231 169 q 291 101 394 101 q 461 101 505 138 l 505 278 l 406 278 l 406 387 l 632 387 l 632 66 q 587 29 515 9 q 444 -12 373 -12 q 219 -12 129 89 q 39 189 39 355 q 39 521 137 624 q 235 728 401 728 q 519 728 602 657 z"},"q":{"x_min":0,"x_max":584,"ha":584,"o":"m 406 -205 l 406 15 q 362 -10 285 -10 q 170 -10 106 60 q 42 129 42 256 q 42 383 115 458 q 189 533 305 533 q 373 533 429 492 l 449 523 l 528 523 l 528 -205 z m 406 399 q 373 429 320 429 q 249 429 209 382 q 168 335 168 256 q 168 93 316 93 q 371 93 406 119 z"},"d":{"x_min":0,"x_max":581,"ha":581,"o":"m 402 0 l 402 32 q 387 15 351 3 q 315 -10 276 -10 q 167 -10 104 60 q 42 129 42 253 q 42 377 114 455 q 186 533 294 533 q 354 533 402 508 l 402 718 l 524 747 l 524 0 z m 402 398 q 363 429 321 429 q 248 429 208 385 q 168 340 168 256 q 168 93 326 93 q 343 93 369 104 q 395 114 402 125 z"},"1":{"x_min":0,"x_max":586,"ha":586,"o":"m 278 0 l 278 516 l 132 428 l 132 550 q 272 618 354 718 l 405 718 l 405 0 z"},"5":{"x_min":0,"x_max":586,"ha":586,"o":"m 81 54 l 131 159 q 208 98 264 98 q 387 98 387 250 q 387 322 359 356 q 332 389 266 389 q 207 389 151 331 l 101 364 l 101 718 l 486 718 l 486 610 l 223 610 l 223 482 q 255 497 300 497 q 405 497 462 436 q 519 375 519 263 q 519 -10 265 -10 q 159 -10 81 54 z"}}}
